<?xml version="1.0" encoding="utf-8"?>
<!-- Generator: Adobe Illustrator 27.5.0, SVG Export Plug-In . SVG Version: 6.00 Build 0)  -->
<svg version="1.1" xmlns="http://www.w3.org/2000/svg" xmlns:xlink="http://www.w3.org/1999/xlink" x="0px" y="0px"
	 viewBox="0 0 1200 1200" style="enable-background:new 0 0 1200 1200;" xml:space="preserve">
<g id="Background">
	<rect style="fill:#FEFDF8;" width="1200" height="1200"/>
</g>
<g id="Graphic_Elements">
	
		<ellipse transform="matrix(0.7071 -0.7071 0.7071 0.7071 -242.7964 602.6378)" style="fill:#EEF5E8;" cx="606.05" cy="594.4" rx="334.56" ry="334.56"/>
	<g>
		<path style="fill:#6D6D6D;" d="M711.284,713.902c0.983-3.141-0.063-6.281-3.113-9.334c-15.938-15.952-34.474-29.481-55.096-40.205
			c-32.502-16.905-68.436-26.075-104.591-26.608c6.086-2.302,12.166-4.571,18.208-6.809c15.398-5.708,31.321-11.613,46.729-18.075
			c16.715-7.01,31.802-14.488,45.416-22.436c0,0,0,0.001,0,0.001c1.73,6.906,9.318,11.674,19.803,12.444
			c11.95,0.878,23.873,1.312,35.777,1.312c48.273,0,96.065-7.186,142.498-21.458c1.319-0.408,2.427-1.312,3.09-2.521
			c1.518-2.779,1.605-5.873,0.246-8.709c-2.307-4.809-8.458-7.873-13.53-8.776l0,0c-39.095-6.979-79.06-7.899-118.778-2.758
			c-3.111,0.408-6.624,0.764-10.364,1.152c-6.533,0.67-13.7,1.427-20.745,2.574c16.895-14.577,29.931-30.526,39.288-48.012
			c15.94-29.796,21.135-64.654,25.715-95.411c0.26-1.751-0.373-3.518-1.688-4.706c-1.313-1.188-3.136-1.643-4.854-1.198
			c-61.119,15.605-106.927,79.469-102.109,142.362c0.506,6.612,1.773,14.681,6.813,20.719
			c-14.805,9.164-31.672,17.698-50.668,25.669c-10.766,4.514-21.8,8.721-32.778,12.833c0.163-0.202,0.32-0.398,0.493-0.607
			c7.207-8.648,16.109-15.789,22.52-25.115c10.686-15.544,13.27-35.526,10.981-54.248c-2.289-18.722-9.038-36.567-15.737-54.2
			c-5.609-14.773-11.219-29.545-16.831-44.317c-8.99,1.102-14.824,9.953-18.257,18.336c-8.185,19.993-9.904,42.06-9.375,63.658
			c0.65,26.4,4.541,52.719,11.529,78.185c1.671,6.093,2.992,13.265,5.817,18.933c0.445,0.891,0.839,1.623,1.207,2.243
			c-1.955,0.726-3.943,1.485-5.885,2.204c-23.231,8.613-46.996,17.478-69.753,28.483c3.134-6.241,5.186-12.972,6.442-18.074
			c3.581-14.562,3.145-30.447-1.228-44.73c-10.214-33.35-37.409-56.632-58.425-70.29c-1.876-1.214-5.785-3.761-10.372-2.578
			c-3.568,0.914-7.903,4.024-8.301,13.617l-2.152,51.714c-0.432,10.414-0.879,21.185,1.089,31.914
			c2.532,13.834,15.626,39.91,32.674,50.882c3.213,2.07,6.425,3.466,9.623,4.331c-20.349,12.735-39.019,28.019-55.488,45.529
			c-10.195,10.838-24.375,27.631-29.78,48.16c-0.743,2.826,0.942,5.718,3.77,6.462c0.451,0.119,0.904,0.176,1.349,0.176
			c2.344,0,4.488-1.57,5.112-3.942c3.698-14.045,12.103-27.497,27.255-43.609c6.158-6.545,12.634-12.769,19.396-18.655
			c-0.203,0.671-0.367,1.377-0.466,2.137c-3.524,26.949,68.196,15.844,80.28,10.294c0.517-0.238,1.072-0.518,1.311-1.034
			c0.54-1.162-0.847-2.253-2.014-2.784c-8.338-3.794-49.717-21.251-69.342-16.678c8.539-6.755,17.465-13.021,26.772-18.702
			c10.423-6.36,21.325-11.991,32.469-17.178c-0.534,4.034,0.447,9.332,5.434,15.767c13.733,17.713,36.135,28.334,52.509,34.12
			c23.619,8.348,48.807,11.199,72.58,13.405c12.842,1.183,26.137,2.252,39.493,2.252c10.019,0,20.071-0.599,29.982-2.206
			C708.635,718.944,710.593,716.118,711.284,713.902z M745.762,428.492c-5.332,12.107-10.898,24.419-17.331,36.096
			c-3.615,6.565-7.59,13.09-11.436,19.397c-5.606,9.2-11.402,18.71-16.226,28.576c-2.238,4.577-4.456,9.366-6.716,14.247
			c-7.111,15.379-14.432,31.173-24.032,44.092c-0.347,0.237-0.663,0.484-1.012,0.721c-1.05-1.003-1.874-2.227-2.545-3.571
			c1.87-14.599,4.757-29.092,8.748-43.225c5.085-18.013,11.196-32.936,18.685-45.634c8.742-14.824,20.195-28.004,31.69-40.653
			C731.988,434.565,738.733,431.177,745.762,428.492z M750.144,426.91c-1.83,12.073-3.857,24.221-6.558,36.172
			c-20.269,32.144-40.279,64.845-59.63,97.477c-2.474,1.979-5.008,3.939-7.643,5.866c7.747-11.826,14.036-25.297,20.144-38.505
			c2.249-4.861,4.458-9.639,6.69-14.201c4.769-9.753,10.533-19.211,16.109-28.355c3.858-6.333,7.85-12.883,11.493-19.495
			c6.897-12.524,12.789-25.724,18.454-38.62C749.517,427.141,749.826,427.016,750.144,426.91z M679.415,592.332
			c-6.464-0.475-9.924-2.898-10.316-4.468c-0.055-0.22,0.021-0.523,0.093-0.822c44.889-6.081,90.57-9.05,135.834-8.745l2.492,0.016
			c10.559,0.075,21.357,0.107,31.814-1.613C787.206,590.957,733.494,596.278,679.415,592.332z M718.658,571.643
			c3.841-0.393,7.448-0.765,10.644-1.183c16.395-2.123,32.824-3.182,49.219-3.182c22.026,0,43.981,1.927,65.662,5.758
			c-11.836,2.751-24.402,2.703-36.645,2.632l-2.497-0.016c-44.586-0.285-89.573,2.585-133.813,8.459
			c0.821-0.8,1.808-1.634,3.181-2.503C684.628,575.135,703.497,573.198,718.658,571.643z M726.792,510.693
			c-8.698,16.255-20.934,31.127-36.74,44.805c16.825-28.255,34.11-56.517,51.625-84.408
			C738.138,484.817,733.485,498.178,726.792,510.693z M716.449,444.797c-9.078,10.323-17.799,21.132-24.83,33.052
			c-7.607,12.894-13.805,28.024-18.951,46.254c-3.536,12.529-6.198,25.341-8.089,38.251c-0.447-2.169-0.688-4.387-0.845-6.431
			C660.476,513.391,682.337,470.395,716.449,444.797z M520.716,651.727c54.023,5.101,108.026,19.215,157.773,41.211
			c2.012,1.511,4.007,3.036,5.955,4.613c-8.289-0.832-16.23-1.13-23.979-1.389c-11.999-0.408-24.406-0.821-37.888-3.342
			c-27.897-5.212-56.744-10.6-84.009-20.09c-9.998-3.481-17.677-10.291-21.728-19C517.901,653.005,519.236,652.342,520.716,651.727z
			 M668.097,685.63c-44.836-18.512-92.77-30.761-140.855-35.919c3.098-0.693,6.48-1.169,9.983-1.289
			c2.484-0.082,4.964-0.124,7.45-0.124c35.74,0,71.379,8.745,103.517,25.456C655.114,677.352,661.696,681.388,668.097,685.63z
			 M464.675,594.341c2.443,13.204,1.582,26.965,0.745,40.277c-0.402,6.426-0.815,13.028-0.864,19.589
			c-10.262-15.099-15.669-32.911-19.612-48.563c-6.692-26.552-10.844-53.863-12.354-81.216
			C448.403,540.287,458.911,563.203,464.675,594.341z M467.276,593.856c-5.072-27.394-13.86-48.48-26.6-64.214
			c6.241,4.432,12.778,9.682,19.038,15.745c17.867,33.51,21.918,74.709,11.147,111.158c-1.179,0.112-2.382,0.08-3.608-0.104
			c-0.045-7.212,0.362-14.541,0.809-21.657C468.906,621.317,469.781,607.385,467.276,593.856z M488.358,589.801
			c3.823,12.48,4.203,26.366,1.072,39.099c-3.655,14.856-9.449,24.78-15.625,27.034c9.71-34.116,6.735-72.161-8.104-104.397
			C475.389,562.174,483.8,574.919,488.358,589.801z M430.718,609.172c-1.756-9.567-1.332-19.733-0.923-29.564l1.535-36.947
			c2.092,21.447,5.792,42.771,11.05,63.634c3.922,15.565,9.337,33.224,19.428,48.455c-1.023-0.487-2.052-1.01-3.096-1.685
			C444.695,644.046,432.961,621.425,430.718,609.172z M634.731,709.222c-23.11-2.139-47.555-4.897-70.03-12.837
			c-15.037-5.321-35.514-14.944-47.673-30.627c-2.063-2.666-4.257-6.4-2.997-9.087c0.174-0.369,0.485-0.725,0.777-1.083
			c4.435,8.999,12.49,16.023,22.891,19.643c27.454,9.551,56.401,14.96,84.395,20.193c13.678,2.552,26.187,2.975,38.281,3.378
			c8.954,0.305,18.136,0.619,27.82,1.802c3.513,2.98,6.954,6.032,10.245,9.226C677.528,712.766,656.359,711.226,634.731,709.222z
			 M701.049,711.686l3.38-3.379l-3.149,4.412C701.199,712.59,701.055,712.208,701.049,711.686z"/>
		<path style="fill:#6D6D6D;" d="M792.36,469.977c-8.634-2.614-19.561-0.832-25.421,4.138c-7.571,6.406-10.121,17.522-6.063,26.428
			c3.486,7.661,11.692,12.656,19.932,12.656c1.502,0,3.005-0.165,4.481-0.511c7.734-1.823,14.417-8.172,17.882-16.985
			c2.082-5.3,2.505-10.176,1.26-14.5C802.887,475.85,798.601,471.862,792.36,469.977z M793.323,491.833
			c-1.694,4.308-5.332,9.345-10.455,10.553c-4.744,1.126-10.294-1.674-12.365-6.225c-2.065-4.535-0.627-10.672,3.272-13.979
			c0.002,0,0.002,0,0.002,0c1.933-1.637,6.021-2.81,10.186-2.81c1.821,0,3.657,0.222,5.337,0.733
			c2.764,0.831,4.434,2.19,4.964,4.029C794.995,486.662,794.156,489.715,793.323,491.833z"/>
		<path style="fill:#6D6D6D;" d="M825.106,545.556c3.696,3.187,8.594,4.856,13.585,4.856c3.054,0,6.141-0.625,9.008-1.901
			c2.683-1.194,4.888-2.795,6.558-4.758c3.664-4.313,4.809-10.673,2.994-16.597c-2.236-7.299-6.955-12.578-12.948-14.484
			c-5.902-1.855-12.388-0.398-18.271,4.148c-0.002,0-0.002,0-0.004,0.005c-2.172,1.685-3.896,3.601-5.125,5.693
			C816.667,529.754,818.513,539.874,825.106,545.556z M830.034,527.864c0.544-0.925,1.374-1.829,2.476-2.681
			c3.049-2.356,6.099-3.223,8.591-2.428c2.633,0.837,4.833,3.57,6.035,7.501c0.748,2.433,0.369,5.109-0.938,6.648
			c-0.625,0.734-1.593,1.405-2.802,1.943c-3.833,1.694-8.513,1.172-11.38-1.302C829.261,535.168,828.352,530.736,830.034,527.864z"
			/>
		<path style="fill:#6D6D6D;" d="M841.992,470.293c1.978,1.341,4.229,2.514,6.62,2.431c3.094-0.107,5.813-2.382,7.183-5.158
			c1.372-2.776,1.601-5.977,1.489-9.071c-0.441-12.116-17.374-7.642-20.199,0.992c-0.44,1.343-0.633,2.79-0.37,4.18
			C837.257,466.516,839.591,468.666,841.992,470.293z"/>
		<path style="fill:#6D6D6D;" d="M226.618,481.005l-12.183-3.575c-7.679,26.19-12.759,53.258-15.101,80.456l12.649,1.085
			C214.253,532.616,219.177,506.384,226.618,481.005z"/>
		<path style="fill:#6D6D6D;" d="M976.475,488.382c8.244,25.126,14.002,51.187,17.109,77.46l12.607-1.488
			c-3.206-27.115-9.146-54.008-17.655-79.929L976.475,488.382z"/>
	</g>
</g>
<g id="Text">
	<path id="SVGID_x5F_1_x5F_" style="fill:none;" d="M972.566,592.472c0,203.808-165.219,369.026-369.026,369.026
		S234.514,796.28,234.514,592.472c0-203.807,165.219-369.026,369.026-369.026S972.566,388.665,972.566,592.472z"/>
	<text>	<textPath  xlink:href="#SVGID_x5F_1_x5F_" startOffset="74.9673%">
<tspan  style="fill:#6D6D6D; font-family:'Poppins-Bold'; font-size:74px; letter-spacing:446;">HERBAL HOUSE</tspan>	</textPath>
</text>
	<g>
		<path id="SVGID_x5F_00000062898088967177754010000008227923916596897980_x5F_" style="fill:none;" d="M820.55,963.222
			c200.602-121.806,264.478-383.169,142.672-583.771C841.416,178.849,580.052,114.972,379.451,236.778
			S114.972,619.948,236.778,820.549C358.584,1021.151,619.948,1085.028,820.55,963.222z"/>
		<text>		<textPath  xlink:href="#SVGID_x5F_00000062898088967177754010000008227923916596897980_x5F_" startOffset="355.1107%">
<tspan  style="fill:#6D6D6D; font-family:'Poppins-Bold'; font-size:74px; letter-spacing:431;">ORGANIC PRODUCTS</tspan>		</textPath>
</text>
	</g>
</g>
</svg>
