<svg width="30" height="30" viewBox="0 0 30 30" fill="none" xmlns="http://www.w3.org/2000/svg">
<path fill-rule="evenodd" clip-rule="evenodd" d="M4.375 14.275C4.375 10.1503 4.375 8.08794 5.42541 6.64218C5.76464 6.17526 6.17526 5.76464 6.64218 5.42541C8.08794 4.375 10.1503 4.375 14.275 4.375H15.725C19.8497 4.375 21.9121 4.375 23.3578 5.42541C23.8247 5.76464 24.2354 6.17526 24.5746 6.64218C25.625 8.08794 25.625 10.1503 25.625 14.275V15.725C25.625 19.8497 25.625 21.9121 24.5746 23.3578C24.2354 23.8247 23.8247 24.2354 23.3578 24.5746C21.9121 25.625 19.8497 25.625 15.725 25.625H14.275C10.1503 25.625 8.08794 25.625 6.64218 24.5746C6.17526 24.2354 5.76464 23.8247 5.42541 23.3578C4.375 21.9121 4.375 19.8497 4.375 15.725V14.275ZM15 9.375C11.8936 9.375 9.375 11.8936 9.375 15C9.375 18.1064 11.8936 20.625 15 20.625C18.1064 20.625 20.625 18.1064 20.625 15C20.625 11.8936 18.1064 9.375 15 9.375ZM15 18.5156C13.0622 18.5156 11.4844 16.9378 11.4844 15C11.4844 13.0608 13.0622 11.4844 15 11.4844C16.9378 11.4844 18.5156 13.0608 18.5156 15C18.5156 16.9378 16.9378 18.5156 15 18.5156ZM21.7964 8.95313C21.7964 9.36708 21.4608 9.70266 21.0469 9.70266C20.6329 9.70266 20.2974 9.36708 20.2974 8.95313C20.2974 8.53917 20.6329 8.20359 21.0469 8.20359C21.4608 8.20359 21.7964 8.53917 21.7964 8.95313Z" fill="#7A2841"/>
</svg>
