<svg width="30" height="30" viewBox="0 0 30 30" fill="none" xmlns="http://www.w3.org/2000/svg">
<path d="M6.9196 12.3437C7.1726 12.5223 7.93522 13.0525 9.20752 13.9341C10.4799 14.8158 11.4545 15.4947 12.1316 15.9707C12.206 16.0229 12.3641 16.1364 12.6059 16.3112C12.8477 16.4862 13.0486 16.6276 13.2085 16.7354C13.3685 16.8433 13.5619 16.9642 13.7889 17.0981C14.0159 17.2319 14.2298 17.3325 14.4307 17.3991C14.6317 17.4662 14.8177 17.4995 14.9888 17.4995H15H15.0112C15.1823 17.4995 15.3684 17.4662 15.5693 17.3991C15.7702 17.3325 15.9843 17.2317 16.2111 17.0981C16.4379 16.964 16.6314 16.8432 16.7914 16.7354C16.9514 16.6276 17.1521 16.4862 17.394 16.3112C17.6358 16.1362 17.794 16.0229 17.8684 15.9707C18.5528 15.4947 20.294 14.2855 23.0915 12.3435C23.6347 11.9642 24.0884 11.5065 24.453 10.9708C24.8178 10.4353 25 9.87349 25 9.28575C25 8.79462 24.8232 8.37419 24.4697 8.02452C24.1163 7.67478 23.6977 7.5 23.2142 7.5H6.78564C6.21276 7.5 5.77189 7.69342 5.46311 8.08027C5.15437 8.46719 5 8.95082 5 9.53113C5 9.99987 5.20468 10.5078 5.61385 11.0547C6.02297 11.6015 6.45837 12.0313 6.9196 12.3437Z" fill="#7A2841"/>
<path d="M23.8838 13.5378C21.4435 15.1895 19.5906 16.4731 18.3259 17.3883C17.9018 17.7007 17.5578 17.9446 17.2936 18.1193C17.0293 18.2942 16.678 18.4727 16.2389 18.6549C15.8 18.8374 15.3909 18.9284 15.0114 18.9284H15H14.9888C14.6093 18.9284 14.2001 18.8374 13.7611 18.6549C13.3222 18.4727 12.9706 18.2942 12.7065 18.1193C12.4424 17.9446 12.0983 17.7007 11.6742 17.3883C10.6697 16.6518 8.82075 15.3681 6.12734 13.5378C5.70313 13.2553 5.32739 12.9314 5 12.5669V21.4282C5 21.9196 5.17478 22.3398 5.52452 22.6895C5.87419 23.0393 6.29465 23.2142 6.78575 23.2142H23.2144C23.7053 23.2142 24.1258 23.0393 24.4755 22.6895C24.8253 22.3397 25 21.9196 25 21.4282V12.5669C24.68 12.9239 24.3081 13.2477 23.8838 13.5378Z" fill="#7A2841"/>
</svg>
