<svg width="30" height="30" viewBox="0 0 30 30" fill="none" xmlns="http://www.w3.org/2000/svg">
<path d="M20.7793 3.75494L17.7811 3.75C14.4128 3.75 12.236 6.04413 12.236 9.59491V12.2898H9.22144C8.96094 12.2898 8.75 12.5067 8.75 12.7743V16.6789C8.75 16.9465 8.96118 17.1632 9.22144 17.1632H12.236V27.0157C12.236 27.2833 12.4469 27.5 12.7074 27.5H16.6405C16.901 27.5 17.112 27.2831 17.112 27.0157V17.1632H20.6367C20.8971 17.1632 21.1081 16.9465 21.1081 16.6789L21.1095 12.7743C21.1095 12.6458 21.0597 12.5228 20.9715 12.4319C20.8832 12.3409 20.7629 12.2898 20.6379 12.2898H17.112V10.0053C17.112 8.90729 17.3667 8.34987 18.7591 8.34987L20.7788 8.34913C21.0391 8.34913 21.25 8.1322 21.25 7.86486V4.23922C21.25 3.97212 21.0393 3.75544 20.7793 3.75494Z" fill="#7A2841"/>
</svg>
